<?xml version="1.0" encoding="UTF-8"?>
<svg version="1.1" xmlns="http://www.w3.org/2000/svg" width="1067" height="327">
<path d="M0 0 C9.64128888 11.99720488 18.32070896 24.7114056 27.08203125 37.35546875 C30.40533828 42.15026184 33.7542799 46.92595155 37.125 51.6875 C41.43578748 57.77840033 45.72424205 63.88445513 50 70 C56.30692235 79.01876095 62.64646246 88.01403961 69 97 C75.94387979 106.82089558 82.86540361 116.65681402 89.7578125 126.51391602 C95.4798673 134.69386796 101.23571804 142.84976983 107 151 C113.98978592 142.21148814 120.40727222 133.12711472 126.70703125 123.8359375 C131.21719628 117.18923908 135.86772015 110.64313026 140.51611328 104.09277344 C143.01672834 100.56607513 145.50784516 97.0326791 148 93.5 C148.99995528 92.08330177 149.99995526 90.66663508 151 89.25 C151.7425 88.198125 151.7425 88.198125 152.5 87.125 C157 80.75 157 80.75 158.49951172 78.62573242 C159.50119043 77.20666042 160.5028179 75.78755225 161.50439453 74.3684082 C163.97829495 70.86324726 166.45303366 67.35868485 168.9296875 63.85546875 C174.90190669 55.40541394 180.84849363 46.93789141 186.77758789 38.45751953 C191.09567369 32.28404822 195.43186267 26.1236562 199.79052734 19.97875977 C202.11812297 16.69179063 204.42218136 13.39292105 206.67578125 10.0546875 C207.29876099 9.13610962 207.29876099 9.13610962 207.93432617 8.19897461 C209.04775028 6.55178269 210.15308848 4.89913317 211.2578125 3.24609375 C212.12019531 2.13427734 212.12019531 2.13427734 213 1 C213.66 1 214.32 1 215 1 C215.03644759 24.7973942 214.93747257 48.59297135 214.79807091 72.38991356 C214.76938233 77.32117724 214.74174869 82.25244684 214.71398926 87.18371582 C214.66158821 96.46517938 214.60827829 105.74663747 214.5546174 115.02809381 C214.49343365 125.61871499 214.4333003 136.20934206 214.37324238 146.79996967 C214.24997281 168.53331973 214.12538852 190.26666207 214 212 C209.05 212 204.1 212 199 212 C198.67 159.2 198.34 106.4 198 52 C187.88230511 65.97252796 187.88230511 65.97252796 177.9375 80.0625 C176.76199453 81.74758825 175.58620838 83.43248073 174.41015625 85.1171875 C173.8392627 85.93541992 173.26836914 86.75365234 172.68017578 87.59667969 C170.08994234 91.30174479 167.48384623 94.99552628 164.875 98.6875 C164.38765381 99.377229 163.90030762 100.06695801 163.39819336 100.77758789 C162.42149396 102.15958101 161.44468782 103.54149869 160.46777344 104.92333984 C157.97679014 108.44767516 155.48855097 111.97394701 153 115.5 C152.00001278 116.91667568 151.00001278 118.33334236 150 119.75 C149.2575 120.801875 149.2575 120.801875 148.5 121.875 C143 129.66666667 137.5 137.45833333 132 145.25 C131.25641235 146.30344604 131.25641235 146.30344604 130.49780273 147.37817383 C129.50520375 148.78431528 128.51252889 150.19040318 127.51977539 151.59643555 C124.90589141 155.29868562 122.29361972 159.00206012 119.68359375 162.70703125 C119.14025391 163.47789062 118.59691406 164.24875 118.03710938 165.04296875 C116.99755945 166.51788574 115.95847097 167.99312812 114.91992188 169.46875 C114.00642955 170.76443048 113.09046536 172.05837378 112.17138672 173.35009766 C111.19903866 174.71965334 110.24031082 176.09886704 109.28515625 177.48046875 C108.86105469 177.98191406 108.43695312 178.48335937 108 179 C107.34 179 106.68 179 106 179 C104.70996094 177.48144531 104.70996094 177.48144531 103.234375 175.328125 C102.68120605 174.52866455 102.12803711 173.7292041 101.55810547 172.90551758 C100.96143066 172.02919678 100.36475586 171.15287598 99.75 170.25 C98.47673018 168.4048322 97.20328789 166.5597834 95.9296875 164.71484375 C94.95080566 163.28954346 94.95080566 163.28954346 93.95214844 161.83544922 C90.95140566 157.47694164 87.91330468 153.14486595 84.875 148.8125 C84.29476074 147.98355225 83.71452148 147.15460449 83.11669922 146.30053711 C77.43467943 138.18370733 71.720073 130.09003631 66 122 C59.04732005 112.16665814 52.11760831 102.31787176 45.21582031 92.44873047 C39.50204568 84.28146795 33.75291373 76.13976091 28 68 C22.06 59.585 22.06 59.585 16 51 C15.34 104.13 14.68 157.26 14 212 C9.05 212 4.1 212 -1 212 C-1.02323938 187.75468874 -1.04104065 163.50938021 -1.05181217 139.26406002 C-1.05694853 128.00424251 -1.06393998 116.7444321 -1.07543945 105.48461914 C-1.08546815 95.66016734 -1.09187273 85.83572068 -1.09408849 76.01126391 C-1.09538182 70.81877637 -1.09837896 65.62630351 -1.10573006 60.43382072 C-1.16236301 18.88784289 -1.16236301 18.88784289 0 0 Z " fill="#000000" transform="translate(852,53)"/>
<path d="M0 0 C0.66 0 1.32 0 2 0 C2.07476562 0.60585938 2.14953125 1.21171875 2.2265625 1.8359375 C3.8155035 11.9615419 8.95458507 18.97435432 15.375 26.6875 C15.80868896 27.20997314 16.24237793 27.73244629 16.68920898 28.27075195 C19.82624665 31.9232626 23.25535433 35.07160177 26.90771484 38.20336914 C30.38181664 41.18655643 33.75702796 44.27309126 37.125 47.375 C38.14013672 48.28765625 38.14013672 48.28765625 39.17578125 49.21875 C47.83336181 57.22324421 54.28564982 66.77122376 55.05859375 78.79296875 C54.61502256 103.07109845 40.31270624 125.89540047 28 146 C27.57444824 146.69593262 27.14889648 147.39186523 26.71044922 148.10888672 C25.48467649 150.10059163 24.24603844 152.08342278 23 154.0625 C22.62625244 154.66465332 22.25250488 155.26680664 21.86743164 155.88720703 C20.96639845 157.29474558 19.99006424 158.65359799 19 160 C18.34 160 17.68 160 17 160 C16.79246094 159.34773437 16.58492187 158.69546875 16.37109375 158.0234375 C16.06300781 157.14945313 15.75492188 156.27546875 15.4375 155.375 C15.14746094 154.51648438 14.85742188 153.65796875 14.55859375 152.7734375 C10.96869788 146.38540225 4.3313737 142.77962255 -1.8125 139.125 C-15.79462823 130.56480893 -26.92270243 121.63151057 -33 106 C-34.65590138 131.51314726 -21.06604212 152.43126463 -5 171 C0.15782651 176.84765542 5.5071384 181.81837631 12.0625 186.0625 C38.18431875 203.46666768 56.91262186 232.06333669 63.375 262.625 C64.79564706 272.59794236 64.15845344 282.95161412 64 293 C63.01 293 62.02 293 61 293 C60.86464844 292.06542969 60.72929688 291.13085938 60.58984375 290.16796875 C56.5971661 264.96561473 45.5557398 239.92577285 25 224 C22.02019206 221.94482081 19.00159059 219.96031659 15.96875 217.984375 C-9.61038118 200.88674521 -34.92601754 173.69388998 -42 143 C-47.68939254 110.50554998 -35.66576868 72.734277 -20.6875 44.1875 C-20.36209229 43.56480225 -20.03668457 42.94210449 -19.70141602 42.30053711 C-17.3892516 38.12975053 -17.3892516 38.12975053 -14 37 C-13.78085937 37.68964844 -13.56171875 38.37929687 -13.3359375 39.08984375 C-8.85326301 52.37386694 -1.28758298 59.96561445 9 69 C31.87060686 89.19832047 31.87060686 89.19832047 37.69140625 98.64453125 C39.56095867 100.58105272 41.39402575 100.6661231 44 101 C41.73716124 91.50203205 38.60220665 85.14515128 32 78 C31.13375 77.02804688 30.2675 76.05609375 29.375 75.0546875 C24.37806784 69.49850063 19.1894137 64.17342256 13.85424805 58.94189453 C-6.82368543 38.63102496 -6.82368543 38.63102496 -7.5 23.3125 C-7.3345658 14.78344804 -4.72806994 7.09210491 0 0 Z M-21 71 C-23.60017388 77.33792383 -24.06250897 83.01148271 -21.76953125 89.4609375 C-15.07522449 102.84955102 1.25506168 112.19282405 13.8125 119.4375 C18.80184682 122.32606921 21.6567862 125.72776895 24 131 C26.34432812 130.09251815 27.69905892 129.50783807 29 127.3125 C29 120.63001106 22.37844337 114.50431238 18 110 C16.13383222 108.27087262 14.2238505 106.61217355 12.28515625 104.96484375 C9.02629329 102.16277868 5.87073546 99.25067142 2.7175293 96.33105469 C0.10245936 93.91284449 -2.53049485 91.52704699 -5.2265625 89.19921875 C-10.89099504 84.25860864 -15.45697471 79.54326036 -19.01171875 72.80078125 C-19.33785156 72.20652344 -19.66398437 71.61226563 -20 71 C-20.33 71 -20.66 71 -21 71 Z " fill="#0D0D0D" transform="translate(43,34)"/>
<path d="M0 0 C2.7890167 2.42630813 3.99992051 4.85297177 5.43359375 8.23828125 C5.90700195 9.34421631 6.38041016 10.45015137 6.86816406 11.58959961 C7.12182739 12.19142059 7.37549072 12.79324158 7.63684082 13.41329956 C8.46073876 15.36762342 9.29318716 17.31810729 10.12792969 19.26782227 C11.05551341 21.4345739 11.98253216 23.60155139 12.90713501 25.76957703 C16.71524178 34.69599422 20.59250169 43.5922573 24.46682739 52.49008179 C25.76245353 55.46610548 27.05704329 58.44257795 28.35131836 61.41918945 C34.06998505 74.57060205 39.79784708 87.71799063 45.53063965 100.86325073 C52.20643973 116.17124542 58.86671148 131.48596986 65.52124023 146.80322266 C69.65127529 156.30811358 73.78824673 165.80987555 77.94140625 175.3046875 C78.72854072 177.10545778 79.5156506 178.90623881 80.30273438 180.70703125 C81.76924396 184.06218471 83.23836444 187.41617777 84.70898438 190.76953125 C85.36989653 192.28120416 86.03070952 193.79292043 86.69140625 195.3046875 C86.98422989 195.97031708 87.27705353 196.63594666 87.57875061 197.32174683 C89.54451441 201.82817268 91.30404608 206.38503307 93 211 C87.39 211 81.78 211 76 211 C71.40541636 201.97992272 67.0820207 192.91880499 63.08251953 183.62084961 C62.24181379 181.66848926 61.39277082 179.71990005 60.54296875 177.77148438 C59.99169225 176.49761004 59.4408936 175.22352879 58.890625 173.94921875 C58.40625977 172.82862061 57.92189453 171.70802246 57.42285156 170.5534668 C55.77367442 166.43476855 54.40297757 162.2089327 53 158 C-1.45 158.495 -1.45 158.495 -57 159 C-61.29 168.24 -65.58 177.48 -70 187 C-80.81081081 209.81081081 -80.81081081 209.81081081 -82 211 C-84.86267567 211.07325168 -87.700719 211.09238205 -90.5625 211.0625 C-91.36880859 211.05798828 -92.17511719 211.05347656 -93.00585938 211.04882812 C-95.00393756 211.03700518 -97.00197783 211.01906914 -99 211 C-97.73516196 206.99449544 -96.26513075 203.2629958 -94.41796875 199.4921875 C-93.64876099 197.91135376 -93.64876099 197.91135376 -92.86401367 196.29858398 C-92.31076416 195.16880127 -91.75751465 194.03901855 -91.1875 192.875 C-89.99702861 190.42721714 -88.81042029 187.97757627 -87.625 185.52734375 C-87.32172287 184.9007637 -87.01844574 184.27418365 -86.70597839 183.62861633 C-83.63183318 177.26305719 -80.6520798 170.85474757 -77.6875 164.4375 C-72.85389672 153.98017103 -67.97494451 143.54551009 -63.0625 133.125 C-58.03970252 122.46884726 -53.03561303 111.80442997 -48.0625 101.125 C-42.533651 89.25263311 -36.94760849 77.40787842 -31.34667969 65.56936646 C-26.54528967 55.41867803 -21.77952542 45.25266122 -17.0625 35.0625 C-13.15768102 26.63019682 -9.2334347 18.20799882 -5.25 9.8125 C-4.83113525 8.9263501 -4.41227051 8.0402002 -3.98071289 7.12719727 C-3.60035889 6.32854248 -3.22000488 5.5298877 -2.828125 4.70703125 C-2.4971582 4.0106958 -2.16619141 3.31436035 -1.82519531 2.59692383 C-1 1 -1 1 0 0 Z M-1 38 C-9.27010323 55.0434084 -17.36275941 72.15730568 -25.31005859 89.35400391 C-27.06766078 93.15091232 -28.8392985 96.94119149 -30.61328125 100.73046875 C-31.06960182 101.70570244 -31.06960182 101.70570244 -31.53514099 102.70063782 C-32.98594728 105.80093253 -34.43802292 108.90061432 -35.89233398 111.99926758 C-40.70580397 122.2871638 -45.33702079 132.63782398 -50 143 C-18.32 143 13.36 143 46 143 C40.61802049 129.85488572 40.61802049 129.85488572 35.01171875 116.8125 C34.50008682 115.64929985 34.50008682 115.64929985 33.9781189 114.46260071 C32.88313302 111.974231 31.78538081 109.48709361 30.6875 107 C29.90987988 105.23470502 29.13245898 103.46932227 28.35522461 101.70385742 C27.14533628 98.95574263 25.93528019 96.20770293 24.72444153 93.46000671 C21.78375946 86.78590147 18.85426398 80.10695782 15.9296875 73.42578125 C15.10590536 71.54490886 14.28209392 69.66404931 13.45825195 67.78320312 C12.26857515 65.06713664 11.07929016 62.35090302 9.89144897 59.6340332 C8.79494141 57.12648976 7.69650426 54.61979977 6.59765625 52.11328125 C6.27654877 51.37757401 5.95544128 50.64186676 5.62460327 49.88386536 C3.85907749 45.86199187 2.00114862 41.91225897 0 38 C-0.33 38 -0.66 38 -1 38 Z " fill="#000000" transform="translate(714,53)"/>
<path d="M0 0 C2.7890167 2.42630813 3.99992051 4.85297177 5.43359375 8.23828125 C5.90700195 9.34421631 6.38041016 10.45015137 6.86816406 11.58959961 C7.12182739 12.19142059 7.37549072 12.79324158 7.63684082 13.41329956 C8.46073876 15.36762342 9.29318716 17.31810729 10.12792969 19.26782227 C11.05551341 21.4345739 11.98253216 23.60155139 12.90713501 25.76957703 C16.71524178 34.69599422 20.59250169 43.5922573 24.46682739 52.49008179 C25.76245353 55.46610548 27.05704329 58.44257795 28.35131836 61.41918945 C34.06998505 74.57060205 39.79784708 87.71799063 45.53063965 100.86325073 C52.20643973 116.17124542 58.86671148 131.48596986 65.52124023 146.80322266 C69.65127529 156.30811358 73.78824673 165.80987555 77.94140625 175.3046875 C78.72854072 177.10545778 79.5156506 178.90623881 80.30273438 180.70703125 C81.76924396 184.06218471 83.23836444 187.41617777 84.70898438 190.76953125 C85.36989653 192.28120416 86.03070952 193.79292043 86.69140625 195.3046875 C86.98422989 195.97031708 87.27705353 196.63594666 87.57875061 197.32174683 C89.54451441 201.82817268 91.30404608 206.38503307 93 211 C87.39 211 81.78 211 76 211 C71.40541636 201.97992272 67.0820207 192.91880499 63.08251953 183.62084961 C62.24181379 181.66848926 61.39277082 179.71990005 60.54296875 177.77148438 C59.99169225 176.49761004 59.4408936 175.22352879 58.890625 173.94921875 C58.40625977 172.82862061 57.92189453 171.70802246 57.42285156 170.5534668 C55.77367442 166.43476855 54.40297757 162.2089327 53 158 C-1.45 158.495 -1.45 158.495 -57 159 C-61.29 168.24 -65.58 177.48 -70 187 C-80.81081081 209.81081081 -80.81081081 209.81081081 -82 211 C-84.86267567 211.07325168 -87.700719 211.09238205 -90.5625 211.0625 C-91.36880859 211.05798828 -92.17511719 211.05347656 -93.00585938 211.04882812 C-95.00393756 211.03700518 -97.00197783 211.01906914 -99 211 C-97.73516196 206.99449544 -96.26513075 203.2629958 -94.41796875 199.4921875 C-93.64876099 197.91135376 -93.64876099 197.91135376 -92.86401367 196.29858398 C-92.31076416 195.16880127 -91.75751465 194.03901855 -91.1875 192.875 C-89.99702861 190.42721714 -88.81042029 187.97757627 -87.625 185.52734375 C-87.32172287 184.9007637 -87.01844574 184.27418365 -86.70597839 183.62861633 C-83.63183318 177.26305719 -80.6520798 170.85474757 -77.6875 164.4375 C-72.85389672 153.98017103 -67.97494451 143.54551009 -63.0625 133.125 C-58.03970252 122.46884726 -53.03561303 111.80442997 -48.0625 101.125 C-42.533651 89.25263311 -36.94760849 77.40787842 -31.34667969 65.56936646 C-26.54528967 55.41867803 -21.77952542 45.25266122 -17.0625 35.0625 C-13.15768102 26.63019682 -9.2334347 18.20799882 -5.25 9.8125 C-4.83113525 8.9263501 -4.41227051 8.0402002 -3.98071289 7.12719727 C-3.60035889 6.32854248 -3.22000488 5.5298877 -2.828125 4.70703125 C-2.4971582 4.0106958 -2.16619141 3.31436035 -1.82519531 2.59692383 C-1 1 -1 1 0 0 Z M-1 38 C-9.27010323 55.0434084 -17.36275941 72.15730568 -25.31005859 89.35400391 C-27.06766078 93.15091232 -28.8392985 96.94119149 -30.61328125 100.73046875 C-31.06960182 101.70570244 -31.06960182 101.70570244 -31.53514099 102.70063782 C-32.98594728 105.80093253 -34.43802292 108.90061432 -35.89233398 111.99926758 C-40.70580397 122.2871638 -45.33702079 132.63782398 -50 143 C-18.32 143 13.36 143 46 143 C40.61802049 129.85488572 40.61802049 129.85488572 35.01171875 116.8125 C34.50008682 115.64929985 34.50008682 115.64929985 33.9781189 114.46260071 C32.88313302 111.974231 31.78538081 109.48709361 30.6875 107 C29.90987988 105.23470502 29.13245898 103.46932227 28.35522461 101.70385742 C27.14533628 98.95574263 25.93528019 96.20770293 24.72444153 93.46000671 C21.78375946 86.78590147 18.85426398 80.10695782 15.9296875 73.42578125 C15.10590536 71.54490886 14.28209392 69.66404931 13.45825195 67.78320312 C12.26857515 65.06713664 11.07929016 62.35090302 9.89144897 59.6340332 C8.79494141 57.12648976 7.69650426 54.61979977 6.59765625 52.11328125 C6.27654877 51.37757401 5.95544128 50.64186676 5.62460327 49.88386536 C3.85907749 45.86199187 2.00114862 41.91225897 0 38 C-0.33 38 -0.66 38 -1 38 Z " fill="#000000" transform="translate(492,52)"/>
<path d="M0 0 C5.28 0 10.56 0 16 0 C16.0268284 24.3849945 15.96606205 48.7675705 15.79807091 73.15197897 C15.76912258 77.39453632 15.7416482 81.63710327 15.71398926 85.87966919 C15.66186058 93.84346155 15.60848735 101.80724502 15.5546174 109.77102578 C15.4931515 118.86725335 15.43314851 127.96349042 15.37324238 137.05972838 C15.2504068 155.70649626 15.12581867 174.35325203 15 193 C16.26309746 192.99833454 16.26309746 192.99833454 17.55171204 192.99663544 C25.62246517 192.98647247 33.69321605 192.97893271 41.76397419 192.97409391 C45.90979098 192.97152237 50.05560235 192.96805526 54.20141602 192.96228027 C80.14796846 192.92711586 106.06338344 193.22411831 132 194 C132 198.95 132 203.9 132 209 C88.44 209 44.88 209 0 209 C0 140.03 0 71.06 0 0 Z " fill="#000000" transform="translate(221,54)"/>
<path d="M0 0 C0.66 0 1.32 0 2 0 C1.96519531 0.6290625 1.93039063 1.258125 1.89453125 1.90625 C1.60474715 11.06894723 3.40052437 16.83538325 9.671875 23.5546875 C10.44015625 24.36164062 11.2084375 25.16859375 12 26 C13.02797358 27.12584323 14.05383826 28.25361397 15.078125 29.3828125 C24.27454626 39.46135291 33.91533313 48.98998634 44.4375 57.6875 C53.81450611 65.86232584 60.324575 78.44013841 61.203125 90.875 C61.48217887 109.47859143 54.18526934 123.45445456 44.6875 138.875 C44.26718506 139.55925049 43.84687012 140.24350098 43.41381836 140.94848633 C41.47016484 144.01887287 40.06250337 145.95833109 37 148 C37.70746797 144.09936576 39.51971585 140.97572221 41.375 137.5 C47.81034063 124.93560753 50.25583527 112.14710941 46.375 98.3125 C41.99773479 85.63825821 34.47684503 77.27258182 24.0625 69.0625 C-6.81427393 44.21259284 -6.81427393 44.21259284 -9 27 C-9.24683762 17.34042103 -5.39236684 7.91553314 0 0 Z " fill="#0D0D0D" transform="translate(58,0)"/>
<path d="M0 0 C0.33 0.66 0.66 1.32 1 2 C1.66 2 2.32 2 3 2 C1.55797524 6.15151338 -0.5010438 9.29978445 -3.125 12.8125 C-4.21167969 14.27623047 -4.21167969 14.27623047 -5.3203125 15.76953125 C-5.87460938 16.50558594 -6.42890625 17.24164063 -7 18 C-8 15 -8 15 -6.85546875 12.6953125 C-6.02982422 11.42300781 -6.02982422 11.42300781 -5.1875 10.125 C-3.06059835 6.82097702 -1.35681422 3.69318211 0 0 Z " fill="#707070" transform="translate(103,130)"/>
<path d="M0 0 C0.66 0 1.32 0 2 0 C1.67 2.97 1.34 5.94 1 9 C0.34 8.01 -0.32 7.02 -1 6 C-1.99 6.495 -1.99 6.495 -3 7 C-1.125 1.125 -1.125 1.125 0 0 Z " fill="#6E6E6E" transform="translate(58,0)"/>
</svg>
